<?xml version="1.0" standalone="no"?><!DOCTYPE svg PUBLIC "-//W3C//DTD SVG 1.1//EN" "http://www.w3.org/Graphics/SVG/1.1/DTD/svg11.dtd"><svg t="1773719479138" class="icon" viewBox="0 0 1024 1024" version="1.1" xmlns="http://www.w3.org/2000/svg" p-id="41983" xmlns:xlink="http://www.w3.org/1999/xlink" width="200" height="200"><path d="M681.4 377.2c0 164.7-44.4 298.1-184.9 298.1-143.1 0-184.9-133.5-184.9-298.1S394.5 79 496.6 79s184.8 133.5 184.8 298.2z" fill="#BDD318" p-id="41984"></path><path d="M496.6 690.4c-134.2 0-202.2-105.4-202.2-313.2 0-82.1 20-159.5 56.2-218 38.1-61.4 89.9-95.3 146-95.3 56 0 107.9 33.8 146 95.2 36.3 58.5 56.2 135.9 56.2 218 0 92.4-13.9 165.5-41.4 217.1-33.9 63.9-88 96.2-160.8 96.2z m0-596.3c-90.8 0-167.5 129.6-167.5 283 0 190.5 54.8 283 167.5 283 111.1 0 167.5-95.2 167.5-283-0.1-153.4-76.8-283-167.5-283z" fill="#C67D26" p-id="41985"></path><path d="M729.9 84.1c78.2 110.8 440.6 664.8-14 829.8-232.9 68.2-409.5 0-409.5 0-454.7-165-92.3-719.1-14-829.8 5.5-7.8 18.9-6.4 22.2 2.3l184.9 493.5c3.7 9.8 19.7 9.8 23.4 0L707.7 86.4c3.3-8.6 16.7-10 22.2-2.3z" fill="#FFEEA6" p-id="41986"></path><path d="M505.5 959.6c-121.8 0-201.3-29.9-206.2-31.8C189.9 888 117.5 822.9 84.6 734.3 46.9 632.9 61 502.4 126.3 346.4 178.4 222 249.4 116 277.5 76.2c6.1-8.7 17.1-13.3 28.7-12.1 11.6 1.2 21.1 8 24.7 17.6L511 562.4 691.2 81.7c3.6-9.7 13.1-16.4 24.7-17.6 11.6-1.2 22.6 3.4 28.7 12.1C772.8 116 843.8 222 895.9 346.4c65.3 156 79.4 286.5 41.7 387.9-32.9 88.6-105.3 153.7-215.1 193.6l-1.1 0.4c-80.1 23.4-153.6 31.3-215.9 31.3zM301.4 100.2c-30.6 44.1-94.7 142.5-142.5 256.5C96.3 506.2 82.4 630.2 117.6 725 147.3 804.9 213 863.7 313 900c2 0.8 173.8 64.9 396.7-0.2C809.4 863.5 875 804.7 904.5 725c35.2-94.9 21.3-218.8-41.3-368.3-47.8-114.1-111.9-212.5-142.5-256.5L539.3 584.6c-4 10.6-15.3 17.8-28.2 17.8-12.9 0-24.2-7.2-28.2-17.8L301.4 100.2z" fill="#C67D26" p-id="41987"></path><path d="M756.4 217.1s209.1 276 4.2 535.2c0.7-0.9-147.3 183.2-331.3 146.2 2.5-0.9 255.1-130.9 316.4-318.5 27.2-71.3 64.2-170.7 10.7-362.9z" fill="#FFF9DE" p-id="41988"></path><path d="M252.1 230.8S70.6 494.3 276.3 758.4c-0.7-0.9 147.8 186.9 318.3 158-2.3-1-246-139.8-313.4-327.3-29.1-71.4-69.1-171-29.1-358.3z" fill="#E8D277" p-id="41989"></path><path d="M221 413.2s74.8-187.3 332.8-126.4c-17 2.6-221.2-27.3-332.8 126.4z" fill="#E8D277" p-id="41990"></path><path d="M161.2 624.1a351.8 304.1 0 1 0 703.6 0 351.8 304.1 0 1 0-703.6 0Z" fill="#FFDEC2" p-id="41991"></path><path d="M308.2 623.3a58.9 85.5 0 1 0 117.8 0 58.9 85.5 0 1 0-117.8 0Z" fill="#C67D26" p-id="41992"></path><path d="M273.3 617.4c7.9-38.9 39-67.9 76.1-67.9s68.3 29 76.1 67.9h0.5c0-47.2-34.3-85.5-76.6-85.5s-76.6 38.3-76.6 85.5" fill="#C67D26" p-id="41993"></path><path d="M635.3 623.3a58.9 85.5 0 1 0 117.8 0 58.9 85.5 0 1 0-117.8 0Z" fill="#C67D26" p-id="41994"></path><path d="M600.4 617.4c7.9-38.9 39-67.9 76.1-67.9s68.3 29 76.1 67.9h0.5c0-47.2-34.3-85.5-76.6-85.5s-76.6 38.3-76.6 85.5" fill="#C67D26" p-id="41995"></path><path d="M450 725.7a60.1 25.9 0 1 0 120.2 0 60.1 25.9 0 1 0-120.2 0Z" fill="#BDD318" p-id="41996"></path><path d="M221 753.3a80 25.9 0 1 0 160 0 80 25.9 0 1 0-160 0Z" fill="#FFB6B6" p-id="41997"></path><path d="M645 753.3a80 25.9 0 1 0 160 0 80 25.9 0 1 0-160 0Z" fill="#FFB6B6" p-id="41998"></path><path d="M492.8 711.2a17.3 7.4 0 1 0 34.6 0 17.3 7.4 0 1 0-34.6 0Z" fill="#FFF9DE" p-id="41999"></path><path d="M864.8 667.5c0-167.9-157.5-304.1-351.8-304.1S161.2 499.6 161.2 667.5v-43.4C161.2 456.2 318.7 320 513 320s351.8 136.1 351.8 304.1" fill="#C67D26" p-id="42000"></path></svg>